# This file uses centimeters as units for non-parametric coordinates.

mtllib Crystal.mtl
g default
v -1.401883 5.143965 1.401883
v 1.401883 5.143965 1.401883
v -1.401883 5.143965 -1.401883
v 1.401883 5.143965 -1.401883
v 0.000000 7.100343 0.000000
v -0.971170 -0.115345 0.971170
v 0.971170 -0.115345 0.971170
v -0.971170 -0.115345 -0.971170
v 0.971170 -0.115345 -0.971170
vt 0.676472 0.795559
vt 0.649815 0.578911
vt 0.805170 0.646950
vt 0.494461 0.690476
vt 0.668284 0.998008
vt 0.542191 0.925214
vt 0.439933 0.420145
vt 0.372000 0.575689
vt 0.229760 0.420145
vt 0.273463 0.001992
vt 0.419059 0.001992
vt 0.514241 0.420145
vt 0.470537 0.001992
vt 0.001607 0.420145
vt 0.224525 0.420145
vt 0.113067 0.575689
vt 0.035852 0.001992
vt 0.190280 0.001992
vn -0.496665 0.711792 -0.496665
vn 0.000000 1.000000 0.000000
vn 0.496665 0.711792 -0.496665
vn -0.496665 0.711792 0.496665
vn 0.496665 0.711792 0.496665
vn 0.000000 -0.081622 0.996663
vn 0.000000 -0.081622 0.996663
vn 0.000000 -0.081622 0.996663
vn 0.000000 -0.081622 0.996663
vn 0.000000 -0.081622 -0.996663
vn 0.000000 -0.081622 -0.996663
vn 0.000000 -0.081622 -0.996663
vn 0.000000 -0.081622 -0.996663
vn -0.996663 -0.081622 0.000000
vn -0.996663 -0.081622 0.000000
vn -0.996663 -0.081622 0.000000
vn -0.996663 -0.081622 0.000000
vn 0.996663 -0.081622 0.000000
vn 0.996663 -0.081622 0.000000
vn 0.996663 -0.081622 0.000000
vn 0.996663 -0.081622 0.000000
s 1
g Crystal
usemtl initialShadingGroup
f 3/1/1 5/2/2 4/3/3
f 1/4/4 5/2/2 3/1/1
f 1/14/4 2/15/5 5/16/2
f 4/7/3 5/8/2 2/9/5
s off
f 2/15/6 1/14/7 6/17/8 7/18/9
f 3/12/10 4/7/11 9/11/12 8/13/13
f 1/4/14 3/1/15 8/5/16 6/6/17
f 4/7/18 2/9/19 7/10/20 9/11/21
