# This file uses centimeters as units for non-parametric coordinates.

mtllib Ore_Clicker.mtl
g default
v -50.079258 -11.850090 49.215031
v 35.800934 -12.479614 16.001457
v 36.797844 60.802223 15.161073
v -45.296299 48.572208 -52.392250
v 24.179699 49.682884 -55.445644
v -50.079258 -11.850090 -50.943489
v 14.810208 -7.654526 -47.805592
v -1.539747 81.695221 39.510815
v -53.492817 42.323750 47.044411
v -58.974487 85.144379 -17.400656
v 6.029233 -12.188618 58.162235
v -7.769339 145.045853 -12.207889
v -66.026299 -11.850090 1.463356
v -36.268162 95.133965 22.621628
v -9.290442 124.156815 15.607789
v -9.372581 143.717941 -6.519231
v -15.684206 141.713089 -10.320832
v -36.920464 127.253662 -7.477050
v 23.241009 92.336472 3.295161
v -1.915585 133.325790 -8.656182
v 6.642711 90.992310 -44.849262
v -7.717917 136.206619 -16.570686
v -42.020123 101.448967 -43.519955
v -15.963125 141.561600 -15.721580
vt 0.224413 0.254200
vt 0.027632 0.254200
vt 0.934290 0.028725
vt 0.027632 0.971275
vt 0.248226 0.677996
vt 0.363608 0.028725
vt 0.746538 0.254200
vt 0.479476 0.316602
vt 0.479476 0.168652
vt 0.554925 0.254200
vt 0.554925 0.028725
vt 0.363608 0.254200
vt 0.479476 0.028725
vt 0.554925 0.415249
vt 0.441754 0.677996
vt 0.425894 0.702152
vt 0.363608 0.415249
vt 0.746538 0.415249
vt 0.485203 0.677996
vt 0.425894 0.721403
vt 0.224413 0.415249
vt 0.934290 0.415249
vt 0.485203 0.721403
vt 0.449280 0.695569
vt 0.224413 0.675102
vt 0.027632 0.675102
vt 0.746538 0.675102
vt 0.363608 0.675102
vt 0.554925 0.675102
vt 0.248226 0.971275
vt 0.417075 0.971275
vt 0.417075 0.677996
vt 0.746538 0.028725
vt 0.027632 0.677996
vt 0.224413 0.028725
vt 0.934290 0.675102
vt 0.934290 0.254200
vt 0.027632 0.415249
vt 0.027632 0.028725
vn -0.005835 0.030904 -0.999505
vn -0.005524 0.027359 -0.999610
vn 0.003683 -0.077392 -0.996994
vn 0.003683 -0.077392 -0.996994
vn 0.025879 -0.998757 -0.042591
vn 0.025879 -0.998757 -0.042591
vn 0.012101 -0.999651 -0.023494
vn 0.013916 -0.999565 -0.026010
vn 0.967011 -0.092164 -0.237476
vn 0.967011 -0.092164 -0.237476
vn 0.967212 0.047081 -0.249570
vn 0.965932 0.064138 -0.250720
vn -0.315806 0.504372 0.803664
vn -0.075904 0.162797 0.983736
vn -0.157751 0.284447 0.945624
vn 0.701983 0.258620 0.663578
vn 0.711636 0.108906 0.694056
vn 0.711636 0.108906 0.694056
vn 0.709208 0.179218 0.681840
vn -0.943058 0.028132 -0.331438
vn -0.943058 0.028132 -0.331438
vn -0.919760 0.164248 -0.356462
vn -0.939440 0.058786 -0.337634
vn -0.061529 0.134523 0.988998
vn -0.061529 0.134523 0.988998
vn -0.006463 -0.999977 0.002243
vn -0.006463 -0.999977 0.002243
vn -0.940394 0.194852 0.278731
vn -0.977039 0.052256 0.206551
vn -0.977040 0.052256 0.206551
vn -0.970842 0.088787 0.222674
vn -0.833604 0.409461 0.370737
vn -0.371186 0.547878 0.749700
vn -0.434017 0.692682 0.576039
vn -0.434017 0.692682 0.576039
vn -0.380989 0.569467 0.728392
vn 0.729594 0.539401 0.420404
vn 0.691063 0.506931 0.515221
vn 0.663716 0.480406 0.573316
vn 0.725887 0.541250 0.424426
vn -0.766820 0.519349 -0.377179
vn -0.611163 0.713736 -0.342140
vn -0.615422 0.705206 -0.352051
vn -0.860926 0.341340 -0.377218
vn 0.836249 0.442217 -0.324239
vn 0.876885 0.393981 -0.275411
vn 0.875661 0.395634 -0.276932
vn 0.836521 0.438828 -0.328119
vn 0.117294 0.533184 -0.837828
vn 0.009131 0.275275 -0.961322
vn 0.024318 0.313392 -0.949313
vn 0.117836 0.532517 -0.838177
vn -0.362385 0.925054 0.113810
vn -0.373114 0.925210 0.069086
vn 0.795566 0.500726 0.341100
vn 0.821678 0.256095 -0.509176
vn 0.192100 0.435250 -0.879577
vn -0.849124 0.351883 0.393913
s 1
g Ore_Clicker
usemtl initialShadingGroup
f 4/1/1 5/2/2 7/39/3 6/35/4
s 2
f 6/4/5 7/34/6 2/5/7 13/30/8
s 3
f 2/33/9 7/3/10 5/37/11 3/7/12
s 4
f 14/8/13 9/9/14 8/10/15
s 5
f 8/10/16 11/11/17 2/33/18 3/7/19
s 6
f 6/35/20 13/6/21 10/12/22 4/1/23
s 4
f 1/13/24 11/11/25 8/10/15 9/9/14
s 2
f 13/30/8 2/5/7 11/32/26 1/31/27
s 7
f 10/12/28 13/6/29 1/13/30 9/9/31
f 10/12/28 9/9/31 14/8/32
s 4
f 15/14/33 16/29/34 17/28/35 18/17/36
s 5
f 16/29/37 15/14/38 19/18/39 20/27/40
s 6
f 18/17/41 17/28/42 24/25/43 23/21/44
s 3
f 20/27/45 19/18/46 21/22/47 22/36/48
s 1
f 22/26/49 21/38/50 23/21/51 24/25/52
s 4
f 18/17/36 14/8/13 8/10/15 15/14/33
s 5
f 8/10/16 3/7/19 19/18/39 15/14/38
s 3
f 3/7/12 5/37/11 21/22/47 19/18/46
s 1
f 5/2/2 4/1/1 23/21/51 21/38/50
s 6
f 4/1/23 10/12/22 18/17/41 23/21/44
f 17/16/42 16/15/53 12/24/54
s 5
f 16/15/37 20/19/40 12/24/55
s 3
f 20/19/45 22/23/48 12/24/56
s 1
f 22/23/49 24/20/52 12/24/57
s 6
f 24/20/43 17/16/42 12/24/54
s 7
f 10/12/28 14/8/32 18/17/58
