# This file uses centimeters as units for non-parametric coordinates.

mtllib PickAxe_clicker.mtl
g default
v -13.123151 68.856262 6.562236
v -3.116115 68.856262 13.123153
v -13.123151 87.250229 6.562236
v -3.116115 87.250229 13.123153
v 13.123153 68.856262 6.562236
v 3.116113 68.856262 13.123153
v 13.123153 87.250229 6.562236
v 3.116113 87.250229 13.123153
v -13.123151 87.250229 -6.562236
v -3.116115 87.250229 -13.123153
v -13.123151 68.856262 -6.562236
v -3.116115 68.856262 -13.123153
v 3.116113 87.250229 -13.123153
v 13.123153 87.250229 -6.562236
v 13.123153 68.856262 -6.562236
v 3.116113 68.856262 -13.123153
v -3.116098 72.646118 42.999603
v -3.116098 61.038097 47.120605
v 3.116097 61.038097 47.120605
v 3.116097 72.646118 42.999603
v -3.116098 61.038097 -47.120605
v -3.116098 72.646118 -42.999603
v 3.116097 72.646118 -42.999603
v 3.116097 61.038097 -47.120605
v -3.116111 85.105072 25.206388
v -3.116108 79.695587 37.146603
v -3.116114 69.419647 24.758526
v -3.116112 67.701614 36.917805
v 3.116113 69.419647 24.758526
v 3.116111 67.701614 36.917805
v 3.116109 85.105072 25.206388
v 3.116107 79.695587 37.146603
v -3.116114 69.419647 -24.758526
v -3.116112 67.701614 -36.917805
v -3.116111 85.105072 -25.206388
v -3.116108 79.695587 -37.146603
v 3.116109 85.105072 -25.206388
v 3.116107 79.695587 -37.146603
v 3.116113 69.419647 -24.758526
v 3.116111 67.701614 -36.917805
v -0.000001 68.856262 13.123153
v -0.000000 69.419647 24.758526
v -0.000000 67.701614 36.917805
v -0.000000 61.038097 47.120605
v -0.000000 72.646118 42.999603
v -0.000000 79.695587 37.146603
v -0.000000 85.105072 25.206388
v -0.000001 87.250229 13.123153
v -0.000001 87.250229 -13.123153
v -0.000000 85.105072 -25.206388
v -0.000000 79.695587 -37.146603
v -0.000000 72.646118 -42.999603
v -0.000000 61.038097 -47.120605
v -0.000000 67.701614 -36.917805
v -0.000000 69.419647 -24.758526
v -0.000001 68.856262 -13.123153
v -3.138550 -18.543179 5.873683
v -4.094834 -15.926273 8.188849
v 2.952251 -18.543179 5.873683
v 4.094834 -15.926273 8.188849
v -5.966832 -18.543179 3.045400
v -8.188849 -15.926273 4.094834
v -2.368493 92.637589 4.432549
v -3.090148 90.928268 6.179677
v 2.227903 92.637589 4.432549
v 3.090148 90.928268 6.179677
v -6.179677 90.928268 3.090148
v -4.583005 92.637589 2.031274
v 5.780532 -18.543179 3.045400
v 8.188849 -15.926273 4.094834
v 4.362253 92.637589 2.298198
v 6.179677 90.928268 3.090148
v 4.362253 92.637589 -2.298198
v 6.179677 90.928268 -3.090148
v -2.368493 92.637589 -4.432549
v -3.090148 90.928268 -6.179677
v 2.227903 92.637589 -4.432549
v 3.090148 90.928268 -6.179677
v -6.179677 90.928268 -3.090148
v -4.583005 92.637589 -2.031274
v -5.966832 -18.543179 -3.045400
v -8.188849 -15.926273 -4.094834
v -3.138550 -18.543179 -5.873683
v -4.094834 -15.926273 -8.188849
v 2.952251 -18.543179 -5.873683
v 4.094834 -15.926273 -8.188849
v 5.780532 -18.543179 -3.045400
v 8.188849 -15.926273 -4.094834
v -3.134058 -1.412270 6.267488
v -3.090148 39.134563 6.179677
v 3.090148 39.134563 6.179677
v 3.134058 -1.412270 6.267488
v 6.179677 39.134563 3.090148
v 6.267488 -1.412270 3.134058
v 6.179677 39.134563 -3.090148
v 6.267488 -1.412270 -3.134058
v 3.090148 39.134563 -6.179677
v 3.134058 -1.412270 -6.267488
v -3.090148 39.134563 -6.179677
v -3.134058 -1.412270 -6.267488
v -6.179677 39.134563 -3.090148
v -6.267488 -1.412270 -3.134058
v -6.179677 39.134563 3.090148
v -6.267488 -1.412270 3.134058
vt 0.078967 0.599691
vt 0.024659 0.678530
vt 0.000000 0.695900
vt 0.053874 0.580214
vt 0.024659 0.678530
vt 0.078967 0.599691
vt 0.053874 0.580214
vt 0.000000 0.695900
vt 0.652122 0.564869
vt 0.832369 0.564869
vt 0.832369 0.693478
vt 0.652122 0.693478
vt 0.652122 0.564868
vt 0.832369 0.564868
vt 0.832369 0.693478
vt 0.652122 0.693478
vt 0.516245 0.704808
vt 0.516214 0.447614
vt 0.546750 0.447610
vt 0.379759 0.478839
vt 0.516214 0.447614
vt 0.516245 0.704808
vt 0.485709 0.704811
vt 0.379586 0.671446
vt 0.379586 0.671446
vt 0.379759 0.478839
vt 0.379759 0.478839
vt 0.379586 0.671446
vt 0.260672 0.505105
vt 0.144472 0.550135
vt 0.128123 0.522759
vt 0.250606 0.475165
vt 0.258784 0.666956
vt 0.127420 0.669350
vt 0.257544 0.695900
vt 0.124484 0.695900
vt 0.127420 0.669350
vt 0.258784 0.666956
vt 0.260672 0.505105
vt 0.144472 0.550135
vt 0.258784 0.666956
vt 0.127420 0.669350
vt 0.124484 0.695900
vt 0.257544 0.695900
vt 0.260672 0.505105
vt 0.144472 0.550135
vt 0.250606 0.475165
vt 0.128123 0.522759
vt 0.144472 0.550135
vt 0.260672 0.505105
vt 0.258784 0.666956
vt 0.127420 0.669350
vt 0.078967 0.599691
vt 0.024659 0.678530
vt 0.024659 0.678530
vt 0.078967 0.599691
vt 0.378073 0.695900
vt 0.378073 0.695900
vt 0.371956 0.447601
vt 0.371956 0.447601
vt 0.257544 0.695900
vt 0.124484 0.695900
vt 0.000000 0.695900
vt 0.053874 0.580214
vt 0.128123 0.522759
vt 0.250605 0.475165
vt 0.250606 0.475165
vt 0.128123 0.522759
vt 0.053874 0.580214
vt 0.000000 0.695900
vt 0.124484 0.695900
vt 0.257544 0.695900
vt 0.371956 0.447601
vt 0.652122 0.447610
vt 0.379759 0.478839
vt 0.378073 0.695900
vt 0.832369 0.447610
vt 0.652122 0.810736
vt 0.546750 0.447610
vt 0.644834 0.640500
vt 0.387640 0.640531
vt 0.644819 0.511891
vt 0.371956 0.447601
vt 0.652122 0.810736
vt 0.546780 0.704804
vt 0.485709 0.704811
vt 0.485679 0.447618
vt 0.387625 0.511921
vt 0.378073 0.695900
vt 0.832369 0.810736
vt 0.379586 0.671446
vt 0.387640 0.640531
vt 0.387625 0.511921
vt 0.546781 0.704804
vt 0.644834 0.640500
vt 0.644818 0.511891
vt 0.485678 0.447618
vt 0.832369 0.810736
vt 0.832369 0.447610
vt 0.652122 0.447610
vt 0.360494 0.758498
vt 0.328341 0.744364
vt 0.373013 0.698920
vt 0.387920 0.731221
vt 0.360744 0.817681
vt 0.328783 0.831936
vt 0.390168 0.845628
vt 0.373950 0.876593
vt 0.459824 0.697459
vt 0.447485 0.729787
vt 0.360744 0.817681
vt 0.328782 0.831936
vt 0.328341 0.744364
vt 0.360494 0.758498
vt 0.390168 0.845628
vt 0.373950 0.876593
vt 0.373013 0.698920
vt 0.387920 0.731221
vt 0.446665 0.845273
vt 0.461044 0.877663
vt 0.459824 0.697459
vt 0.447485 0.729787
vt 0.507388 0.740962
vt 0.476117 0.756612
vt 0.476503 0.817759
vt 0.507852 0.833358
vt 0.461044 0.877663
vt 0.446665 0.845273
vt 0.507388 0.740962
vt 0.476117 0.756612
vt 0.507852 0.833358
vt 0.476503 0.817759
vt 0.866823 0.158448
vt 0.487690 0.158448
vt 0.487690 0.112628
vt 0.866823 0.112628
vt 0.866823 0.222782
vt 0.487690 0.222782
vt 0.866823 0.268261
vt 0.487690 0.268261
vt 0.866823 0.332702
vt 0.487690 0.332702
vt 0.866823 0.378610
vt 0.487690 0.378610
vt 0.866823 0.444760
vt 0.487690 0.444760
vt 0.487690 0.000000
vt 0.866823 0.000000
vt 0.866823 0.046963
vt 0.487690 0.046963
vt 0.000000 0.158448
vt 0.000000 0.222782
vt 0.000000 0.444760
vt 0.000000 0.378610
vt 0.000000 0.268261
vt 0.000000 0.332702
vt 0.000000 0.112628
vt 0.000000 0.046963
vt 0.000000 0.000000
vt 1.000000 0.158448
vt 1.000000 0.222782
vt 1.000000 0.268261
vt 1.000000 0.332702
vt 1.000000 0.378610
vt 1.000000 0.444760
vt 1.000000 0.000000
vt 1.000000 0.046963
vt 1.000000 0.112628
vn 0.000000 0.471447 0.881894
vn 0.000000 0.334556 0.942376
vn 0.000000 0.334556 0.942376
vn 0.000000 0.471447 0.881894
vn 0.000000 0.334556 -0.942376
vn 0.000000 0.471447 -0.881894
vn 0.000000 0.471447 -0.881894
vn 0.000000 0.334556 -0.942376
vn 0.891431 0.000000 0.453157
vn 0.891431 0.000000 0.453157
vn 0.891431 0.000000 -0.453157
vn 0.891431 0.000000 -0.453157
vn -0.891431 0.000000 -0.453157
vn -0.891431 0.000000 -0.453157
vn -0.891431 0.000000 0.453157
vn -0.891431 0.000000 0.453157
vn 0.000000 0.999777 -0.021120
vn 0.000000 0.999777 0.021120
vn 0.000000 0.999908 0.013579
vn 0.000000 1.000000 0.000000
vn 0.000000 1.000000 0.000000
vn 0.000000 0.999908 -0.013579
vn 0.000000 -1.000000 -0.000000
vn 0.000000 -0.999985 -0.005573
vn 0.000000 -0.999994 -0.003577
vn 0.000000 -1.000000 -0.000000
vn 0.000000 -1.000000 -0.000000
vn 0.000000 -1.000000 -0.000000
vn -0.548294 0.000000 0.836286
vn -0.548294 0.000000 0.836286
vn 0.548294 0.000000 0.836286
vn 0.548294 0.000000 0.836286
vn -0.548294 0.000000 -0.836286
vn -0.548294 0.000000 -0.836286
vn 0.548294 0.000000 -0.836286
vn 0.548294 0.000000 -0.836286
vn 0.000000 0.953944 0.299986
vn 0.000000 0.819152 0.573577
vn 0.000000 0.819152 0.573577
vn 0.000000 0.953944 0.299986
vn -1.000000 0.000000 0.000000
vn -1.000000 0.000000 0.000000
vn -1.000000 0.000000 0.000000
vn -1.000000 0.000000 0.000000
vn 0.000000 -0.936387 -0.350968
vn 0.000000 -0.998825 -0.048469
vn 0.000000 -0.998825 -0.048469
vn 0.000000 -0.936387 -0.350968
vn 1.000000 0.000000 0.000000
vn 1.000000 0.000000 0.000000
vn 1.000000 0.000000 0.000000
vn 1.000000 0.000000 0.000000
vn 0.000000 -0.998825 0.048469
vn 0.000000 -0.936387 0.350968
vn 0.000000 -0.936387 0.350968
vn 0.000000 -0.998825 0.048469
vn -1.000000 0.000000 -0.000000
vn -1.000000 0.000000 -0.000000
vn -1.000000 0.000000 -0.000000
vn -1.000000 0.000000 -0.000000
vn 0.000000 0.819152 -0.573577
vn 0.000000 0.953944 -0.299986
vn 0.000000 0.953944 -0.299986
vn 0.000000 0.819152 -0.573577
vn 1.000000 0.000000 -0.000000
vn 1.000000 0.000000 -0.000000
vn 1.000000 0.000000 -0.000000
vn 1.000000 0.000000 -0.000000
vn -1.000000 0.000000 0.000000
vn -1.000000 0.000000 0.000000
vn -1.000000 0.000000 0.000000
vn -1.000000 0.000000 0.000000
vn 0.000000 -0.998830 0.048363
vn 0.000000 -0.998830 0.048363
vn 1.000000 0.000000 0.000000
vn 1.000000 0.000000 0.000000
vn 1.000000 0.000000 0.000000
vn 1.000000 0.000000 0.000000
vn 0.000000 0.999908 0.013579
vn -1.000000 0.000000 -0.000000
vn -1.000000 0.000000 -0.000000
vn -1.000000 0.000000 -0.000000
vn -1.000000 0.000000 -0.000000
vn 0.000000 0.999908 -0.013579
vn 1.000000 0.000000 -0.000000
vn 1.000000 0.000000 -0.000000
vn 1.000000 0.000000 -0.000000
vn 1.000000 0.000000 -0.000000
vn 0.000000 -0.999994 -0.003577
vn -1.000000 0.000000 0.000002
vn -1.000000 0.000000 0.000002
vn -1.000000 0.000000 0.000002
vn -1.000000 0.000000 0.000002
vn 0.000000 -0.837253 -0.546816
vn 0.000000 -0.837253 -0.546816
vn 1.000000 0.000000 0.000002
vn 1.000000 0.000000 0.000002
vn 1.000000 0.000000 0.000002
vn 1.000000 0.000000 0.000002
vn -1.000000 0.000000 -0.000002
vn -1.000000 0.000000 -0.000002
vn -1.000000 0.000000 -0.000002
vn -1.000000 0.000000 -0.000002
vn 1.000000 0.000000 -0.000002
vn 1.000000 0.000000 -0.000002
vn 1.000000 0.000000 -0.000002
vn 1.000000 0.000000 -0.000002
vn 0.000000 -0.837253 0.546816
vn 0.000000 -0.837253 0.546816
vn 0.000000 -0.998830 0.048364
vn 0.000000 -0.998825 -0.048468
vn 0.000000 -0.936387 -0.350968
vn 0.000000 -0.837253 -0.546816
vn 0.000000 0.334556 0.942376
vn 0.000000 0.471447 0.881894
vn 0.000000 0.819152 0.573577
vn 0.000000 0.953944 0.299986
vn 0.000000 0.953944 -0.299986
vn 0.000000 0.819152 -0.573577
vn 0.000000 0.471447 -0.881894
vn 0.000000 0.334556 -0.942376
vn 0.000000 -0.936388 0.350968
vn 0.000000 -0.837253 0.546816
vn 0.000000 -0.998825 0.048468
vn 0.000000 1.000000 0.000000
vn 0.000000 1.000000 0.000000
vn 0.000000 -1.000000 0.000000
vn 0.000000 -1.000000 0.000000
vn 0.000000 -1.000000 0.000000
vn -0.135475 -0.899791 0.414756
vn -0.317491 0.001690 0.948260
vn -0.947834 0.004926 0.318725
vn -0.269610 -0.959124 0.085981
vn 0.130831 -0.900817 0.414020
vn 0.319213 -0.000115 0.947683
vn 0.264855 -0.960473 0.085689
vn 0.948087 -0.003304 0.317994
vn -0.947834 0.004926 -0.318725
vn -0.269610 -0.959124 -0.085981
vn -0.124036 0.924917 0.359365
vn -0.316239 0.025725 0.948331
vn 0.316275 0.025372 0.948328
vn 0.112894 0.926863 0.358022
vn -0.240585 0.967914 0.072540
vn -0.948107 0.023597 0.317075
vn 0.948389 0.026016 0.316040
vn 0.239721 0.967743 0.077512
vn 0.264855 -0.960473 -0.085689
vn 0.948087 -0.003304 -0.317994
vn 0.948389 0.026016 -0.316040
vn 0.239721 0.967743 -0.077512
vn 0.316275 0.025372 -0.948328
vn 0.112894 0.926863 -0.358022
vn -0.124036 0.924917 -0.359366
vn -0.316239 0.025725 -0.948331
vn -0.948107 0.023597 -0.317075
vn -0.240585 0.967914 -0.072540
vn -0.317491 0.001690 -0.948260
vn -0.135475 -0.899791 -0.414756
vn 0.319212 -0.000115 -0.947683
vn 0.130831 -0.900817 -0.414020
vn -0.315211 0.045764 0.947918
vn -0.316173 0.001057 0.948701
vn -0.948701 0.001057 0.316173
vn -0.947917 0.045764 0.315211
vn 0.315211 0.045764 0.947918
vn 0.316173 0.001057 0.948701
vn 0.947918 0.045764 0.315211
vn 0.948701 0.001057 0.316173
vn 0.947917 0.045764 -0.315211
vn 0.948701 0.001057 -0.316173
vn 0.315211 0.045764 -0.947918
vn 0.316173 0.001057 -0.948701
vn -0.315211 0.045764 -0.947918
vn -0.316173 0.001057 -0.948701
vn -0.947918 0.045764 -0.315211
vn -0.948701 0.001057 -0.316173
s 1
g PickAxe_Clicker
usemtl initialShadingGroup
f 17/1/1 18/2/2 44/70/3 45/69/4
f 21/5/5 22/6/6 52/64/7 53/63/8
s 3
f 7/9/9 5/10/10 15/11/11 14/12/12
s 4
f 9/13/13 11/14/14 1/15/15 3/16/16
s 1
f 49/17/17 48/18/18 8/19/19 7/82/20 14/80/21 13/85/22
s 6
f 41/21/23 56/22/24 16/23/25 15/92/26 5/93/27 6/97/28
s 4
f 1/15/15 2/98/29 4/78/30 3/16/16
s 3
f 6/77/31 5/10/10 7/9/9 8/74/32
s 4
f 9/13/13 10/100/33 12/99/34 11/14/14
s 3
f 13/84/35 14/12/12 15/11/11 16/90/36
s 1
f 25/29/37 26/30/38 46/68/39 47/67/40
s off
f 26/30/41 25/29/42 27/33/43 28/34/44
s 7
f 28/34/45 27/33/46 42/72/47 43/71/48
s off
f 30/37/49 29/38/50 31/39/51 32/40/52
s 6
f 33/41/53 34/42/54 54/62/55 55/61/56
s off
f 34/42/57 33/41/58 35/45/59 36/46/60
s 1
f 36/46/61 35/45/62 50/66/63 51/65/64
s off
f 38/49/65 37/50/66 39/51/67 40/52/68
f 4/26/69 2/25/70 27/33/71 25/29/72
s 7
f 2/25/73 41/76/74 42/72/47 27/33/46
s off
f 6/24/75 8/75/76 31/39/77 29/38/78
s 1
f 47/67/40 48/60/18 4/26/79 25/29/37
s off
f 12/28/80 10/27/81 35/45/82 33/41/83
s 1
f 10/27/84 49/83/17 50/66/63 35/45/62
s off
f 13/20/85 16/91/86 39/51/87 37/50/88
s 6
f 55/61/56 56/58/24 12/28/89 33/41/53
s off
f 26/30/90 28/34/91 18/2/92 17/1/93
s 7
f 28/34/45 43/71/48 44/70/94 18/2/95
s off
f 30/37/96 32/40/97 20/53/98 19/54/99
s 1
f 45/69/4 46/68/39 26/30/38 17/1/1
s off
f 34/42/100 36/46/101 22/6/102 21/5/103
s 1
f 36/46/61 51/65/64 52/64/7 22/6/6
s off
f 38/49/104 40/52/105 24/55/106 23/56/107
s 6
f 53/63/108 54/62/55 34/42/54 21/5/109
s 7
f 42/35/47 41/57/74 6/24/110 29/38/111
f 43/36/48 42/35/47 29/38/111 30/37/112
f 44/3/94 43/36/48 30/37/112 19/54/113
s 1
f 45/4/4 44/3/3 19/54/114 20/53/115
f 32/40/116 46/31/39 45/4/4 20/53/115
f 47/32/40 46/31/39 32/40/116 31/39/117
f 8/75/19 48/73/18 47/32/40 31/39/117
f 50/47/63 49/59/17 13/20/22 37/50/118
f 51/48/64 50/47/63 37/50/118 38/49/119
f 52/7/7 51/48/64 38/49/119 23/56/120
f 53/8/8 52/7/7 23/56/120 24/55/121
s 6
f 40/52/122 54/43/55 53/8/108 24/55/123
f 55/44/56 54/43/55 40/52/122 39/51/124
f 16/91/25 56/89/24 55/44/56 39/51/124
s 1
f 3/88/125 4/87/79 48/18/18 49/17/17 10/86/84 9/81/126
s 6
f 11/95/127 12/94/89 56/22/24 41/21/23 2/79/128 1/96/129
s 10
f 57/101/130 58/102/131 62/103/132 61/104/133
f 58/102/131 57/101/130 59/105/134 60/106/135
f 60/106/135 59/105/134 69/107/136 70/108/137
f 61/104/133 62/103/132 82/109/138 81/110/139
f 63/111/140 64/112/141 66/113/142 65/114/143
f 64/112/141 63/111/140 68/115/144 67/116/145
f 65/114/143 66/113/142 72/117/146 71/118/147
f 70/108/137 69/107/136 87/119/148 88/120/149
f 71/118/147 72/117/146 74/121/150 73/122/151
f 73/122/151 74/121/150 78/123/152 77/124/153
f 75/125/154 76/126/155 79/127/156 80/128/157
f 76/126/155 75/125/154 77/124/153 78/123/152
f 81/110/139 82/109/138 84/129/158 83/130/159
f 83/130/159 84/129/158 86/131/160 85/132/161
f 85/132/161 86/131/160 88/120/149 87/119/148
f 68/115/144 63/111/140 65/114/143 71/118/147
f 81/110/139 83/130/159 85/132/161 87/119/148
f 80/128/157 79/127/156 67/116/145 68/115/144
f 89/133/162 90/134/163 103/135/164 104/136/165
f 90/134/163 89/133/162 92/137/166 91/138/167
f 91/138/167 92/137/166 94/139/168 93/140/169
f 93/140/169 94/139/168 96/141/170 95/142/171
f 95/142/171 96/141/170 98/143/172 97/144/173
f 97/144/173 98/143/172 100/145/174 99/146/175
f 99/147/175 100/148/174 102/149/176 101/150/177
f 101/150/177 102/149/176 104/136/165 103/135/164
f 64/151/141 90/134/163 91/138/167 66/152/142
f 97/144/173 99/146/175 76/153/155 78/154/152
f 72/155/146 93/140/169 95/142/171 74/156/150
f 103/135/164 90/134/163 64/151/141 67/157/145
f 91/138/167 93/140/169 72/155/146 66/152/142
f 79/158/156 76/159/155 99/147/175 101/150/177
f 78/154/152 74/156/150 95/142/171 97/144/173
f 67/157/145 79/158/156 101/150/177 103/135/164
f 92/137/166 89/133/162 58/160/131 60/161/135
f 60/161/135 70/162/137 94/139/168 92/137/166
f 96/141/170 94/139/168 70/162/137 88/163/149
f 98/143/172 96/141/170 88/163/149 86/164/160
f 84/165/158 100/145/174 98/143/172 86/164/160
f 102/149/176 100/148/174 84/166/158 82/167/138
f 104/136/165 102/149/176 82/167/138 62/168/132
f 62/168/132 58/160/131 89/133/162 104/136/165
f 80/128/157 73/122/151 77/124/153 75/125/154
f 68/115/144 71/118/147 73/122/151 80/128/157
f 61/104/133 69/107/136 59/105/134 57/101/130
f 81/110/139 87/119/148 69/107/136 61/104/133
